# Blender v3.1.2 OBJ File: ''
# www.blender.org
mtllib right_post.mtl
o Right_post_Untitled.008
v -6.877723 0.000080 -0.000000
v -6.925038 3.301075 0.000001
v -6.942524 0.000080 0.156445
v -6.989336 3.293018 0.156446
v -7.098969 0.000080 0.221246
v -7.144567 3.273565 0.221247
v -7.255414 0.000080 0.156445
v -7.299798 3.254112 0.156446
v -7.320216 0.000080 -0.000000
v -7.364098 3.246055 0.000001
v -7.255414 0.000080 -0.156445
v -7.299798 3.254112 -0.156444
v -7.098969 0.000080 -0.221247
v -7.144568 3.273565 -0.221245
v -6.942525 0.000080 -0.156445
v -6.989337 3.293018 -0.156444
v -6.809209 0.891311 -0.071364
v -6.831470 1.770780 -0.000000
v -6.838485 2.630850 0.008798
v -6.898701 2.645282 0.163089
v -6.895884 1.767139 0.156445
v -6.869310 0.873699 0.083204
v -7.051132 2.649451 0.226998
v -7.051394 1.758350 0.221247
v -7.022139 0.855732 0.147228
v -7.206485 2.640915 0.163089
v -7.206904 1.749560 0.156446
v -7.178170 0.847936 0.083205
v -7.273757 2.624675 0.008799
v -7.271318 1.745919 0.000000
v -7.246003 0.854876 -0.071363
v -7.213541 2.610243 -0.145492
v -7.206904 1.749560 -0.156444
v -7.185902 0.872488 -0.225931
v -7.061110 2.606074 -0.209401
v -7.051394 1.758350 -0.221246
v -7.033074 0.890455 -0.289955
v -6.905757 2.614609 -0.145492
v -6.895885 1.767139 -0.156445
v -6.877043 0.898252 -0.225931
v -6.874774 2.830240 0.006596
v -6.935968 2.838720 0.161426
v -7.088995 2.836196 0.225559
v -7.244211 2.824148 0.161426
v -7.310696 2.809633 0.006597
v -7.249501 2.801153 -0.148233
v -7.096476 2.803677 -0.212366
v -6.941259 2.815725 -0.148233
v -6.783002 2.669420 0.009237
v -6.858465 2.677082 0.209165
v -7.053803 2.676254 0.291979
v -7.254590 2.667421 0.209166
v -7.343207 2.655758 0.009237
v -7.267744 2.648095 -0.190692
v -7.072405 2.648923 -0.273505
v -6.871619 2.657756 -0.190692
v -6.803077 2.793202 0.006383
v -6.880590 2.797123 0.207011
v -7.077584 2.792100 0.290114
v -7.278664 2.781075 0.207012
v -7.366038 2.770507 0.006384
v -7.288525 2.766586 -0.194244
v -7.091530 2.771610 -0.277346
v -6.890451 2.782634 -0.194244
vt 0.314388 0.820811
vt 0.311702 0.971584
vt 0.253370 0.971609
vt 0.253611 0.823398
vt 0.195623 0.973735
vt 0.193673 0.829066
vt 0.138741 0.977462
vt 0.132129 0.833159
vt 0.077106 0.981098
vt 0.070460 0.838443
vt 0.549811 0.842412
vt 0.540859 0.981097
vt 0.480857 0.978073
vt 0.491892 0.830487
vt 0.425805 0.974904
vt 0.433806 0.823125
vt 0.665911 0.692067
vt 0.665911 0.604572
vt 0.727780 0.542704
vt 0.815275 0.542704
vt 0.877143 0.604572
vt 0.877143 0.692067
vt 0.815275 0.753935
vt 0.727780 0.753935
vt 0.375028 0.818876
vt 0.369511 0.972657
vt 0.665911 0.412654
vt 0.665911 0.325159
vt 0.727780 0.263291
vt 0.815275 0.263291
vt 0.877143 0.325159
vt 0.877143 0.412654
vt 0.815275 0.474522
vt 0.727780 0.474522
vt 0.326921 0.031672
vt 0.325210 0.273984
vt 0.269725 0.267941
vt 0.269621 0.026592
vt 0.315940 0.512658
vt 0.258552 0.512823
vt 0.313338 0.751192
vt 0.252720 0.756714
vt 0.213087 0.260773
vt 0.213098 0.021409
vt 0.202016 0.510701
vt 0.193483 0.763205
vt 0.154327 0.256429
vt 0.156463 0.018902
vt 0.145965 0.506926
vt 0.131575 0.766246
vt 0.095749 0.256916
vt 0.099768 0.020444
vt 0.087178 0.502390
vt 0.066891 0.760594
vt 0.559399 0.027904
vt 0.544963 0.264029
vt 0.489170 0.268498
vt 0.501680 0.030723
vt 0.549399 0.507578
vt 0.491605 0.507288
vt 0.560283 0.767435
vt 0.497643 0.763559
vt 0.434999 0.273636
vt 0.443811 0.033664
vt 0.433108 0.508539
vt 0.436182 0.756102
vt 0.385202 0.034251
vt 0.380438 0.276111
vt 0.374369 0.510803
vt 0.374821 0.753350
vt 0.195965 0.780865
vt 0.132730 0.786019
vt 0.252434 0.802372
vt 0.313972 0.798270
vt 0.130454 0.814996
vt 0.193227 0.808766
vt 0.435856 0.776192
vt 0.375251 0.769470
vt 0.494845 0.813940
vt 0.561507 0.827714
vt 0.568094 0.790817
vt 0.495766 0.785235
vt 0.376686 0.799729
vt 0.254051 0.773890
vt 0.313412 0.768241
vt 0.058043 0.822898
vt 0.055560 0.784336
vt 0.436407 0.805270
vn 0.7811 0.6232 -0.0382
vn 0.6983 0.7157 -0.0110
vn 0.4718 0.6950 0.5426
vn 0.5744 0.5930 0.5643
vn -0.0774 0.6291 0.7734
vn -0.0247 0.5219 0.8526
vn -0.6206 0.5597 0.5492
vn -0.6456 0.4593 0.6101
vn -0.8479 0.5302 0.0057
vn -0.8860 0.4636 -0.0060
vn -0.6248 0.5557 -0.5484
vn -0.6079 0.5247 -0.5960
vn -0.0751 0.6186 -0.7821
vn -0.0234 0.5846 -0.8110
vn 0.4715 0.6833 -0.5575
vn 0.5276 0.6168 -0.5841
vn 0.7524 -0.6587 0.0053
vn 0.5366 -0.6297 0.5618
vn -0.0175 -0.5968 0.8022
vn -0.5719 -0.5823 0.5778
vn -0.8024 -0.5963 0.0261
vn -0.5682 -0.6291 -0.5305
vn -0.0135 -0.6584 -0.7525
vn 0.5226 -0.6693 -0.5281
vn 0.9992 -0.0258 -0.0305
vn 0.7297 -0.0218 0.6834
vn 0.9999 0.0165 -0.0016
vn 0.7071 -0.0196 0.7069
vn 0.8560 -0.5168 0.0146
vn 0.5756 -0.5841 0.5723
vn 0.0182 0.0020 0.9998
vn 0.0003 -0.0436 0.9990
vn 0.0224 -0.6279 0.7780
vn -0.7050 0.0256 0.7088
vn -0.7001 -0.0428 0.7128
vn -0.5132 -0.6312 0.5815
vn -0.9995 0.0290 -0.0081
vn -0.9997 -0.0169 0.0185
vn -0.7895 -0.6113 0.0544
vn -0.6967 0.0161 -0.7172
vn -0.7183 0.0208 -0.6954
vn -0.5930 -0.5729 -0.5658
vn 0.0082 0.0009 -1.0000
vn -0.0056 0.0467 -0.9989
vn 0.0272 -0.5168 -0.8557
vn 0.6990 -0.0142 -0.7150
vn 0.7058 0.0443 -0.7070
vn 0.6426 -0.4855 -0.5927
vn 0.0436 -0.4761 0.8783
vn -0.5507 -0.5500 0.6279
vn 0.6043 0.5200 0.6037
vn 0.8380 0.5442 -0.0392
vn -0.6768 0.3489 0.6483
vn -0.0309 0.4352 0.8998
vn 0.0187 -0.4527 -0.8915
vn 0.6665 -0.3725 -0.6458
vn -0.6757 0.3750 -0.6347
vn -0.9444 0.3286 0.0093
vn -0.8182 -0.5732 0.0448
vn -0.6038 -0.5354 -0.5906
vn 0.5728 0.5130 -0.6393
vn 0.6684 -0.3956 0.6299
vn 0.9360 -0.3520 -0.0066
vn -0.0380 0.4491 -0.8927
usemtl Rope_Post__Rope_Post_AO
s 1
f 41/1/1 2/2/2 4/3/3 42/4/4
f 42/4/4 4/3/3 6/5/5 43/6/6
f 43/6/6 6/5/5 8/7/7 44/8/8
f 44/8/8 8/7/7 10/9/9 45/10/10
f 45/11/10 10/12/9 12/13/11 46/14/12
f 46/14/12 12/13/11 14/15/13 47/16/14
f 4/17/3 2/18/2 16/19/15 14/20/13 12/21/11 10/22/9 8/23/7 6/24/5
f 48/25/16 16/26/15 2/2/2 41/1/1
f 47/16/14 14/15/13 16/26/15 48/25/16
f 1/27/17 3/28/18 5/29/19 7/30/20 9/31/21 11/32/22 13/33/23 15/34/24
f 1/35/17 17/36/25 22/37/26 3/38/18
f 17/36/25 18/39/27 21/40/28 22/37/26
f 18/39/27 19/41/29 20/42/30 21/40/28
f 3/38/18 22/37/26 25/43/31 5/44/19
f 22/37/26 21/40/28 24/45/32 25/43/31
f 21/40/28 20/42/30 23/46/33 24/45/32
f 5/44/19 25/43/31 28/47/34 7/48/20
f 25/43/31 24/45/32 27/49/35 28/47/34
f 24/45/32 23/46/33 26/50/36 27/49/35
f 7/48/20 28/47/34 31/51/37 9/52/21
f 28/47/34 27/49/35 30/53/38 31/51/37
f 27/49/35 26/50/36 29/54/39 30/53/38
f 9/55/21 31/56/37 34/57/40 11/58/22
f 31/56/37 30/59/38 33/60/41 34/57/40
f 30/59/38 29/61/39 32/62/42 33/60/41
f 11/58/22 34/57/40 37/63/43 13/64/23
f 34/57/40 33/60/41 36/65/44 37/63/43
f 33/60/41 32/62/42 35/66/45 36/65/44
f 15/67/24 40/68/46 17/36/25 1/35/17
f 40/68/46 39/69/47 18/39/27 17/36/25
f 39/69/47 38/70/48 19/41/29 18/39/27
f 13/64/23 37/63/43 40/68/46 15/67/24
f 37/63/43 36/65/44 39/69/47 40/68/46
f 36/65/44 35/66/45 38/70/48 39/69/47
f 26/50/36 23/46/33 51/71/49 52/72/50
f 41/1/1 42/4/4 58/73/51 57/74/52
f 43/6/6 44/8/8 60/75/53 59/76/54
f 38/70/48 35/66/45 55/77/55 56/78/56
f 45/11/10 46/14/12 62/79/57 61/80/58
f 32/62/42 29/61/39 53/81/59 54/82/60
f 48/25/16 41/1/1 57/74/52 64/83/61
f 23/46/33 20/42/30 50/84/62 51/71/49
f 49/85/63 57/74/52 58/73/51 50/84/62
f 50/84/62 58/73/51 59/76/54 51/71/49
f 51/71/49 59/76/54 60/75/53 52/72/50
f 52/72/50 60/75/53 61/86/58 53/87/59
f 53/81/59 61/80/58 62/79/57 54/82/60
f 54/82/60 62/79/57 63/88/64 55/77/55
f 56/78/56 64/83/61 57/74/52 49/85/63
f 55/77/55 63/88/64 64/83/61 56/78/56
f 35/66/45 32/62/42 54/82/60 55/77/55
f 47/16/14 48/25/16 64/83/61 63/88/64
f 46/14/12 47/16/14 63/88/64 62/79/57
f 20/42/30 19/41/29 49/85/63 50/84/62
f 44/8/8 45/10/10 61/86/58 60/75/53
f 29/54/39 26/50/36 52/72/50 53/87/59
f 42/4/4 43/6/6 59/76/54 58/73/51
f 19/41/29 38/70/48 56/78/56 49/85/63
