# Blender v3.1.2 OBJ File: ''
# www.blender.org
mtllib rope.mtl
o Rope_Untitled.006
v -6.845482 2.722429 -0.071068
v -0.288982 2.722435 -0.071070
v -6.845482 2.660882 -0.035534
v -0.288982 2.660888 -0.035536
v -6.845482 2.660882 0.035535
v -0.288982 2.660888 0.035533
v -6.845482 2.722429 0.071069
v -0.288982 2.722435 0.071068
v -6.845482 2.783977 0.035535
v -0.288982 2.783983 0.035533
v -6.845482 2.783977 -0.035534
v -0.288982 2.783983 -0.035536
v -5.752732 2.419847 -0.071069
v -4.659982 2.230733 -0.071069
v -3.567232 2.174000 -0.071069
v -2.474482 2.230735 -0.071070
v -1.381732 2.419851 -0.071070
v -1.381732 2.358304 -0.035536
v -2.474482 2.169188 -0.035535
v -3.567232 2.112453 -0.035535
v -4.659982 2.169186 -0.035535
v -5.752732 2.358300 -0.035534
v -1.381732 2.358304 0.035533
v -2.474482 2.169188 0.035534
v -3.567232 2.112453 0.035534
v -4.659982 2.169186 0.035535
v -5.752732 2.358300 0.035535
v -1.381732 2.419851 0.071068
v -2.474482 2.230735 0.071068
v -3.567232 2.174000 0.071068
v -4.659982 2.230734 0.071069
v -5.752732 2.419847 0.071069
v -1.381732 2.481398 0.035533
v -2.474482 2.292283 0.035534
v -3.567232 2.235548 0.035534
v -4.659982 2.292281 0.035534
v -5.752732 2.481395 0.035535
v -1.381733 2.481398 -0.035536
v -2.474482 2.292283 -0.035535
v -3.567232 2.235548 -0.035535
v -4.659982 2.292281 -0.035535
v -5.752732 2.481395 -0.035534
vt 0.796203 0.805694
vt 0.952563 0.958773
vt 0.940995 0.966078
vt 0.784946 0.813486
vt 0.931430 0.975857
vt 0.775399 0.823265
vt 0.832185 0.765386
vt 0.987548 0.918685
vt 0.980451 0.930381
vt 0.824610 0.776794
vt 0.973456 0.941936
vt 0.817071 0.788186
vt 0.807460 0.797952
vt 0.963992 0.951572
vt 0.027287 0.052143
vt 0.185010 0.206977
vt 0.177382 0.218489
vt 0.020139 0.063969
vt 0.339194 0.358089
vt 0.330479 0.368875
vt 0.491269 0.507198
vt 0.481482 0.517193
vt 0.643087 0.655738
vt 0.632536 0.664631
vt 0.167651 0.228408
vt 0.010326 0.073955
vt 0.320784 0.378760
vt 0.471807 0.527087
vt 0.622923 0.674492
vt 0.067084 0.016020
vt 0.224956 0.169898
vt 0.213601 0.177764
vt 0.055411 0.023417
vt 0.378563 0.319820
vt 0.368019 0.328692
vt 0.529874 0.467821
vt 0.520233 0.477654
vt 0.680390 0.615830
vt 0.671772 0.626494
vt 0.202262 0.185595
vt 0.043878 0.030710
vt 0.357474 0.337556
vt 0.510538 0.487546
vt 0.663164 0.637161
vt 0.034334 0.040460
vt 0.192589 0.195468
vt 0.347839 0.347365
vt 0.500960 0.497303
vt 0.653577 0.646921
vn 0.0071 -0.0154 -0.9999
vn -0.0236 0.0854 -0.9961
vn 0.2269 -0.8192 -0.5267
vn 0.1894 -0.8515 -0.4890
vn 0.2269 -0.8192 0.5267
vn 0.1894 -0.8515 0.4890
vn -0.0236 0.0854 0.9961
vn 0.0071 -0.0154 0.9999
vn -0.2379 0.8592 0.4530
vn -0.1912 0.8435 0.5019
vn -0.1912 0.8435 -0.5019
vn -0.2379 0.8592 -0.4530
vn 0.0236 0.0854 -0.9961
vn -0.0071 -0.0154 -0.9999
vn -0.1894 -0.8515 -0.4890
vn -0.2269 -0.8193 -0.5267
vn -0.0043 -0.0189 -0.9998
vn -0.0961 -0.8659 -0.4909
vn -0.0000 -0.0165 -0.9999
vn 0.0000 -0.8700 -0.4930
vn 0.0043 -0.0189 -0.9998
vn 0.0961 -0.8659 -0.4909
vn -0.1894 -0.8515 0.4890
vn -0.2268 -0.8192 0.5267
vn -0.0961 -0.8659 0.4909
vn 0.0000 -0.8700 0.4930
vn 0.0961 -0.8659 0.4909
vn -0.0071 -0.0154 0.9999
vn 0.0236 0.0854 0.9961
vn -0.0043 -0.0189 0.9998
vn 0.0000 -0.0165 0.9999
vn 0.0043 -0.0189 0.9998
vn 0.1912 0.8435 0.5019
vn 0.2379 0.8592 0.4530
vn 0.0971 0.8564 0.5071
vn -0.0000 0.8618 0.5073
vn -0.0971 0.8564 0.5071
vn 0.2379 0.8592 -0.4530
vn 0.1912 0.8435 -0.5019
vn 0.0971 0.8564 -0.5071
vn -0.0000 0.8618 -0.5073
vn -0.0971 0.8564 -0.5071
usemtl Rope__Rope_AO
s 1
f 17/1/1 2/2/2 4/3/3 18/4/4
f 18/4/4 4/3/3 6/5/5 23/6/6
f 23/7/6 6/8/5 8/9/7 28/10/8
f 28/10/8 8/9/7 10/11/9 33/12/10
f 38/13/11 12/14/12 2/2/2 17/1/1
f 33/12/10 10/11/9 12/14/12 38/13/11
f 1/15/13 13/16/14 22/17/15 3/18/16
f 13/16/14 14/19/17 21/20/18 22/17/15
f 14/19/17 15/21/19 20/22/20 21/20/18
f 15/21/19 16/23/21 19/24/22 20/22/20
f 16/23/21 17/1/1 18/4/4 19/24/22
f 3/18/16 22/17/15 27/25/23 5/26/24
f 22/17/15 21/20/18 26/27/25 27/25/23
f 21/20/18 20/22/20 25/28/26 26/27/25
f 20/22/20 19/24/22 24/29/27 25/28/26
f 19/24/22 18/4/4 23/6/6 24/29/27
f 5/30/24 27/31/23 32/32/28 7/33/29
f 27/31/23 26/34/25 31/35/30 32/32/28
f 26/34/25 25/36/26 30/37/31 31/35/30
f 25/36/26 24/38/27 29/39/32 30/37/31
f 24/38/27 23/7/6 28/10/8 29/39/32
f 7/33/29 32/32/28 37/40/33 9/41/34
f 32/32/28 31/35/30 36/42/35 37/40/33
f 31/35/30 30/37/31 35/43/36 36/42/35
f 30/37/31 29/39/32 34/44/37 35/43/36
f 29/39/32 28/10/8 33/12/10 34/44/37
f 11/45/38 42/46/39 13/16/14 1/15/13
f 42/46/39 41/47/40 14/19/17 13/16/14
f 41/47/40 40/48/41 15/21/19 14/19/17
f 40/48/41 39/49/42 16/23/21 15/21/19
f 39/49/42 38/13/11 17/1/1 16/23/21
f 9/41/34 37/40/33 42/46/39 11/45/38
f 37/40/33 36/42/35 41/47/40 42/46/39
f 36/42/35 35/43/36 40/48/41 41/47/40
f 35/43/36 34/44/37 39/49/42 40/48/41
f 34/44/37 33/12/10 38/13/11 39/49/42
